<?xml version="1.0" encoding="UTF-8"?>
<svg width="395px" height="420px" viewBox="0 0 395 420" version="1.1" xmlns="http://www.w3.org/2000/svg" xmlns:xlink="http://www.w3.org/1999/xlink">
    <title>编组 7</title>
    <g id="最终" stroke="none" stroke-width="1" fill="none" fill-rule="evenodd">
        <g id="画板-缩头" transform="translate(-785.000000, -1716.000000)">
            <g id="编组-7" transform="translate(785.000000, 1716.000000)">
                <g id="编组-2" transform="translate(2.030879, 39.496710)">
                    <g id="编组-6" transform="translate(0.969121, 0.503290)">
                        <path d="M268.311804,73.1643451 C291.933013,108.772532 302.858167,116.128299 324.873523,128.226581 C346.888879,140.324863 352.489321,157.757039 349.46861,174.070172 C346.4479,190.383305 324.715806,211.766511 297.901764,205.075835 C271.087722,198.385158 257.154813,181.606234 247.612314,164.09461 C263.960752,140.57282 254.470252,52.2986641 268.311804,73.1643451 Z" id="路径-18" fill="#1C2F4F"></path>
                        <path d="M36.5486901,89.0454032 C19.4450457,107.203361 0,150.273351 0,185.315182 C0,226.570243 19.194558,252.057973 46.4326496,267.226698 C73.6707413,282.395424 90.5070337,281.93164 116.866507,278.709821 C143.225981,275.488002 164.69404,257.583588 186.005238,247.498374 C207.316437,237.41316 227.431451,230.593097 251.937551,227.252592 C276.44365,223.912087 295.979739,219.57611 294.46861,190.383305 C292.957482,161.1905 237.262741,163.418323 234.587362,165.22417 C233.379176,166.03968 147.679728,216.511076 61.3958698,165.22417 C15.8043329,129.688631 36.7992478,88.7794005 36.5486901,89.0454032 Z" id="路径-17" fill="#1C2F4F"></path>
                        <path d="M281.338524,173.465523 C283.248613,174.246581 286.045594,175.505884 286.045594,171.870092 C286.045594,170.739587 285.408101,167.458946 285.55827,165.658475 C285.721763,163.698262 286.003209,161.964048 286.045594,160.734034 C286.209086,155.989408 282.17883,157.332731 279.165102,158.615575 C275.473277,160.187062 274.549014,163.676978 275.185482,166.868442 C275.82195,170.059906 279.04079,172.525952 281.338524,173.465523 Z" id="椭圆形" fill="#DBE0E6"></path>
                        <path d="M284.226503,155.453375 C287.175114,154.744281 287.933184,154.895359 288.558913,153.661185 C289.001922,152.787402 288.628635,150.889601 288.773704,149.176528 C288.931644,147.311468 289.851134,144.744752 289.672869,143.604157 C288.880592,138.534912 284.949056,140.374228 282.461509,142.762524 C278.847367,146.232465 278.297332,149.202 278.912183,152.238545 C279.527034,155.275089 281.623629,156.079324 284.226503,155.453375 Z" id="椭圆形" fill="#DBE0E6" transform="translate(284.195695, 148.012803) rotate(19.000000) translate(-284.195695, -148.012803) "></path>
                        <path d="M285.590707,190.482868 C287.617867,191.769028 291.276588,192.688012 291.276588,189.354276 C291.276588,188.317692 290.732318,186.154562 290.582197,183.693819 C290.432075,181.233076 290.532733,180.862964 290.568406,179.739993 C290.68528,176.060908 286.64348,176.2599 283.782757,177.328934 C281.298004,178.257469 279.810186,180.40614 280.408817,183.332461 C281.007449,186.258782 283.563546,189.196709 285.590707,190.482868 Z" id="椭圆形" fill="#DBE0E6" transform="translate(285.776588, 184.151930) rotate(-28.000000) translate(-285.776588, -184.151930) "></path>
                        <path d="M69,292.99905 C69,294.417601 89.633684,311.680836 113.474152,311.680836 C137.31462,311.680836 145.676851,312.18613 175.253199,292.99905 C188.211648,284.592508 200.709735,270.224507 218.430688,264.136131 C241.156017,256.328405 267.903079,259.561091 281.571202,253.744733 C305.897572,243.392846 313.587154,216.065247 310.267515,214.707717 C308.349373,213.923314 308.349373,231.318994 281.571202,244.181906 C259.601871,254.734888 235.173403,243.615641 207.060602,253.744733 C180.346653,263.369817 155.116776,291.315703 129.639673,296.555556 C104.16257,301.795408 69,291.580498 69,292.99905 Z" id="路径-20" fill="#1C2F4F"></path>
                        <path d="M186.896185,315.362125 C200.857992,317.592681 213.428924,314.179321 222.386851,305.192231 C231.344778,296.205141 231.190586,296.707848 238.25622,292.731172 C245.321855,288.754496 256.388967,289.01635 268.72617,280.419312 C274.33008,276.514293 279.397165,265.335663 278.561969,264.343489 C277.726772,263.351316 278.49396,264.343489 268.530368,272.013803 C257.362553,280.611171 243.849776,274.383302 230.773838,283.446939 C218.34854,292.059582 213.665574,304.058529 201.815563,308.747213 C189.965551,313.435897 172.934377,313.131568 186.896185,315.362125 Z" id="路径-20" fill="#1C2F4F"></path>
                        <path d="M54.9634132,42.3505213 C79,20.9750387 113,3.13949047 153,0.982885563 C193,-1.17371934 224.357019,14.5819349 242.83327,20.9750387 C248.6883,12.2525472 256.099801,11.4858203 258.721775,14.503267 C266.721775,23.7099087 260.051053,43.648427 258.721775,48 C263.438826,60.0222963 270.011665,74.7702216 271.473617,78.2231535 C285.346985,110.990169 277.570347,140.088618 248.143704,165.5185 C240.626549,163.75474 235.196072,163.75474 231.852273,165.5185 C223.199599,170.872982 205.666661,192.86617 127.481648,191 C48.2789268,189.109539 22.0153168,145.320598 31.3119067,104.5 C34.0285276,92.5715302 38.5992961,82.7935956 43.1547966,69.0882353 C33.8388769,56.077222 32.9028939,45.058455 38.064017,37 C45.5220228,27.8201863 54.1731816,43.0532659 54.9634132,42.3505213 Z" id="路径-16" stroke="#1C2F4F" stroke-width="5" fill="#FFFFFF"></path>
                        <path d="M138.101607,190.882892 C199.202065,188.833358 218.94756,172.443431 233.613475,165.514643 C236.419111,164.189144 239.868373,163.50695 246.423472,163.50695 C247.337913,163.50695 257.004137,153.807556 257.004137,153.81074 C259.440664,119.741404 233.47998,102.49259 203.729783,102.999639 C186.37306,103.295459 160.164901,112.221415 138.57636,112.221415 C120.740613,112.221415 110.721791,104.9353 90.8066149,104.9353 C66.6173562,104.9353 34.7715924,119.463777 39.6659068,148.003757 C42.1709255,162.611152 74.751899,193.007874 138.101607,190.882892 Z" id="椭圆形" fill="#DBE0E6"></path>
                        <path d="M81.5,95.2231535 C87.8512746,95.2231535 93,86 93,77.2591722 C93,70.6215601 90.9887243,56.077222 82,56.077222 C73.3092998,56.077222 70,68.8161145 70,77.2591722 C70,85.7022298 75.1487254,95.2231535 81.5,95.2231535 Z" id="椭圆形" fill="#1C2F4F"></path>
                        <path d="M86,72.1092224 C86,68.5170456 82.7771587,62.5882353 79.9582426,62.5882353 C77.1393266,62.5882353 77.5637897,64.2042246 79.9582426,68.1567235 C82.3526955,72.1092224 86,75.7013993 86,72.1092224 Z" id="椭圆形" fill="#FFFFFF"></path>
                        <path d="M208.347826,87 C215.251348,87 220.847826,78.9556777 220.847826,69.0615096 C220.847826,59.1673415 216.649024,49.1653493 209.347826,49.1653493 C202.046628,49.1653493 195.847826,57.0585383 195.847826,69.0615096 C195.847826,81.0644809 201.444304,87 208.347826,87 Z" id="椭圆形" fill="#1C2F4F"></path>
                        <path d="M208.958255,60.9912201 C212.210958,60.9912201 214.847826,59.5159498 214.847826,57.7014313 C214.847826,55.8869128 212.900832,54.0222963 210.341928,54.0222963 C207.783024,54.0222963 203.847826,57.0034982 203.847826,59.2047559 C203.847826,61.4060136 205.705552,60.9912201 208.958255,60.9912201 Z" id="椭圆形" fill="#FFFFFF"></path>
                        <path d="M137.738664,86 C129.799709,86 127.763558,95.3821223 122.82207,100.740292 C118.371374,105.546534 115.058421,110.074757 116.932599,114.863753 C118.827489,118.343063 128.526495,124 137.738664,124 C146.950832,124 156.993254,118.97622 159.812887,114.863753 C162.632519,110.751286 157.355406,105.325551 153.309191,100.740292 C149.262976,96.1550335 145.677618,86 137.738664,86 Z" id="路径-19" fill="#354867"></path>
                        <path d="M116.932599,114.863753 C118.827489,118.343063 128.526495,124 137.738664,124 C146.950832,124 156.993254,118.97622 159.812887,114.863753 C161.724851,112.07513 153.420455,108.178423 150.942136,109.96239 C146.80676,112.939155 144.71445,118.605845 138.452015,118.605845 C132.189579,118.605845 131.049979,114.166406 125.851826,110.974959 C123.552359,109.563183 115.731135,111.793709 116.932599,114.863753 Z" id="路径-19" fill="#1C2F4F"></path>
                        <path d="M93,125.478557 C90.5464716,127.800335 91,148.451283 110.852438,150.746468 C124.058857,150.746468 127.766366,145.364652 130,146.897822 C132.188959,148.400326 137.900324,158.723151 143.144112,157.5 C148.387901,156.276849 151.443697,147.5 153.822847,146.5 C156.201997,145.5 167.72172,150.746468 177.561223,148.5 C193.187233,144.932407 196.319422,125.054533 192.17732,124 C188.035218,122.945467 193.184209,141.5 176.254138,144.261239 C159.324067,147.022477 147.323425,131.5 139.5,131.5 C131.676575,131.5 128.704876,147.229305 110.852438,146.364652 C93,145.5 95.4535284,123.15678 93,125.478557 Z" id="路径-20" fill="#354867"></path>
                    </g>
                    <path d="M102.969121,122.624078 C99.3044977,120.892865 93.637831,119.233277 85.9691211,117.645314 C78.3004111,116.05735 70.5728597,115.734094 62.7864669,116.675545" id="路径-5" stroke="#1C2F4F" stroke-width="4" stroke-linecap="round" stroke-linejoin="round"></path>
                    <path d="M219.969121,122.624078 C215.756148,120.597927 210.089481,118.938338 202.969121,117.645314 C195.848761,116.352289 188.121914,116.352289 179.788581,117.645314" id="路径-5" stroke="#1C2F4F" stroke-width="4" stroke-linecap="round" stroke-linejoin="round" transform="translate(199.878851, 119.649812) scale(-1, 1) translate(-199.878851, -119.649812) "></path>
                    <path d="M102.969121,139.624078 C96.3024544,142.290745 87.8254225,142.290745 77.5380254,139.624078 C67.2506283,136.957412 60.3943269,133.957412 56.9691211,130.624078" id="路径-5" stroke="#1C2F4F" stroke-width="4" stroke-linecap="round" stroke-linejoin="round" transform="translate(79.969121, 136.124078) scale(1, -1) translate(-79.969121, -136.124078) "></path>
                    <path d="M234.969121,140.124078 C226.668054,142.124078 217.501387,142.124078 207.469121,140.124078 C197.436855,138.124078 188.270188,135.124078 179.969121,131.124078" id="路径-5" stroke="#1C2F4F" stroke-width="4" stroke-linecap="round" stroke-linejoin="round" transform="translate(207.469121, 136.374078) scale(-1, -1) translate(-207.469121, -136.374078) "></path>
                    <path d="M47.9498739,56.2086386 C45.2386384,36.9363613 41.0407191,46.7398548 41.6895673,52.7200503 C42.3384155,58.7002459 50.6611093,75.480916 47.9498739,56.2086386 Z" id="椭圆形" fill="#1C2F4F"></path>
                    <path d="M257.722298,36.7695669 C257.722298,27.3705907 256.397997,22.2397615 254.882222,22.5137235 C253.020882,22.8501431 251.700194,28.0459551 251.700194,33.4474208 C251.700194,38.4179836 257.722298,56.3397628 257.722298,36.7695669 Z" id="椭圆形" fill="#1C2F4F"></path>
                </g>
            </g>
        </g>
    </g>
</svg>