<svg xmlns="http://www.w3.org/2000/svg" xmlns:xlink="http://www.w3.org/1999/xlink" width="347.3" height="96.212" viewBox="0 0 347.3 96.212">
  <defs>
    <linearGradient id="linear-gradient" x2="1" gradientUnits="objectBoundingBox">
      <stop offset="0" stop-color="#fff"/>
      <stop offset="0" stop-color="#75e5e1"/>
      <stop offset="1" stop-color="#5e85c9"/>
    </linearGradient>
  </defs>
  <g id="Grupo_5007" data-name="Grupo 5007" transform="translate(-131 -280)">
    <g id="Grupo_5006" data-name="Grupo 5006">
      <g id="Componente_55_2" data-name="Componente 55 – 2" transform="translate(131 280)">
        <path id="Trazado_18" data-name="Trazado 18" d="M-.3,29.2H19.076l25.79,71.491L71.458,29.2H89.632L51.414,123.809H36.849Zm127.348,85.789h-.4a20.647,20.647,0,0,1-8.819,7.951,27.672,27.672,0,0,1-11.759,2.472,31.221,31.221,0,0,1-8.619-1.2,23.344,23.344,0,0,1-7.483-3.608,18.536,18.536,0,0,1-5.278-6.013,17.055,17.055,0,0,1-2-8.419,19.4,19.4,0,0,1,1.871-8.886,18.25,18.25,0,0,1,5.011-6.147,25.4,25.4,0,0,1,7.283-3.942,49.888,49.888,0,0,1,8.619-2.2,76.416,76.416,0,0,1,9.02-.935q4.543-.2,8.552-.2h4.009V82.117q0-6.013-4.142-9.02a17.52,17.52,0,0,0-10.557-3.007,24.813,24.813,0,0,0-9.488,1.8,24.02,24.02,0,0,0-7.617,4.877l-8.419-8.419A31.083,31.083,0,0,1,99.32,60.469a46,46,0,0,1,14.766-2.405A37.181,37.181,0,0,1,125.578,59.6a25.283,25.283,0,0,1,7.75,3.942,17.43,17.43,0,0,1,4.744,5.546,25.745,25.745,0,0,1,2.405,6.347,34.717,34.717,0,0,1,.869,6.214q.134,3.007.134,5.278v36.881H127.048Zm-.935-19.911h-3.341q-3.341,0-7.483.267a39.263,39.263,0,0,0-7.817,1.269,17.877,17.877,0,0,0-6.214,2.94,6.42,6.42,0,0,0-2.539,5.412,6.829,6.829,0,0,0,1,3.808,9.075,9.075,0,0,0,2.606,2.606,10.911,10.911,0,0,0,3.608,1.537,17.59,17.59,0,0,0,4.009.468q8.285,0,12.227-3.942t3.942-10.757Zm28.6-35.412h15.234V69.957h.267a22.5,22.5,0,0,1,6.949-8.352q4.677-3.541,12.695-3.541A25.122,25.122,0,0,1,200.744,60.2a20.585,20.585,0,0,1,7.283,5.612,21.245,21.245,0,0,1,4.009,8.018,36.925,36.925,0,0,1,1.2,9.488v40.489H197.2V91.337q0-2.673-.267-5.946a21.347,21.347,0,0,0-1.4-6.147,11.511,11.511,0,0,0-3.541-4.811,10.149,10.149,0,0,0-6.548-1.938,15.312,15.312,0,0,0-6.748,1.336,12.968,12.968,0,0,0-4.543,3.608,14.349,14.349,0,0,0-2.606,5.211,23.26,23.26,0,0,0-.8,6.147v35.011H154.709Zm131.223,64.142H270.7V113.519h-.267a22.5,22.5,0,0,1-6.949,8.352q-4.677,3.541-12.695,3.541a25.821,25.821,0,0,1-10.891-2.071,19.618,19.618,0,0,1-7.283-5.612,21.869,21.869,0,0,1-4.009-8.085,36.925,36.925,0,0,1-1.2-9.488V59.667h16.035V92.139q0,2.673.267,5.946a21.347,21.347,0,0,0,1.4,6.147,11.753,11.753,0,0,0,3.474,4.811,10.1,10.1,0,0,0,6.615,1.938,15.312,15.312,0,0,0,6.748-1.336,12.968,12.968,0,0,0,4.543-3.608,14.349,14.349,0,0,0,2.606-5.211,23.259,23.259,0,0,0,.8-6.147V59.667h16.035ZM334.305,77.44a14.675,14.675,0,0,0-12.561-6.548,13.433,13.433,0,0,0-6.281,1.6,5.451,5.451,0,0,0-3.073,5.212,4.494,4.494,0,0,0,2.539,4.276,28.009,28.009,0,0,0,6.414,2.272q3.875.935,8.352,1.938a32.849,32.849,0,0,1,8.352,3.073,18.275,18.275,0,0,1,6.414,5.679Q347,98.553,347,104.834a17.892,17.892,0,0,1-2.472,9.688,19.415,19.415,0,0,1-6.414,6.347,28.468,28.468,0,0,1-8.886,3.474,46.67,46.67,0,0,1-9.889,1.069,42.473,42.473,0,0,1-13.764-2.138,26.138,26.138,0,0,1-11.225-7.75l10.69-10.022a30.112,30.112,0,0,0,6.615,5.679,16,16,0,0,0,8.619,2.2,17.212,17.212,0,0,0,3.608-.4,11.722,11.722,0,0,0,3.474-1.336,8.266,8.266,0,0,0,2.606-2.339,6,6,0,0,0-1.537-8.218,22.621,22.621,0,0,0-6.414-2.606q-3.875-1-8.352-1.871a32.359,32.359,0,0,1-8.352-2.806,17.549,17.549,0,0,1-6.414-5.412q-2.539-3.474-2.539-9.621a18.722,18.722,0,0,1,2.2-9.287,19.374,19.374,0,0,1,5.813-6.481,25.118,25.118,0,0,1,8.285-3.742,37.807,37.807,0,0,1,22.182,1A20.739,20.739,0,0,1,345,67.819Z" transform="translate(0.3 -29.2)" fill="url(#linear-gradient)"/>
      </g>
    </g>
  </g>
</svg>
