<svg xmlns="http://www.w3.org/2000/svg" xmlns:xlink="http://www.w3.org/1999/xlink" width="200.844" height="57.702" viewBox="0 0 200.844 57.702">
  <defs>
    <clipPath id="clip-path">
      <rect id="Rectángulo_1633" data-name="Rectángulo 1633" width="200.844" height="57.702" fill="#768cb1"/>
    </clipPath>
  </defs>
  <g id="Grupo_4806" data-name="Grupo 4806" transform="translate(-131 -85)">
    <g id="Grupo_3420" data-name="Grupo 3420" transform="translate(131 85)">
      <g id="Grupo_3419" data-name="Grupo 3419" clip-path="url(#clip-path)">
        <path id="Trazado_38187" data-name="Trazado 38187" d="M36.561,59.022a30.369,30.369,0,0,1-.658-3.37.453.453,0,0,0-.058-.171.458.458,0,0,0-.627-.166q-12.678,7.369-21.433,7.369c-1.481,0-2.922-1.1-3.481-3.661s-.389-7.381,5.815-18.477c4.26-7.619,12.553-16.893,12.436-17.2s-.587-.529-1.936-.67a33.215,33.215,0,0,0-5.191.206.458.458,0,0,0-.25.1,54.462,54.462,0,0,0-8.593,9.25C8.156,38.084,4.062,44.04,1.3,53.581S.29,70.041,5.375,72.216s12.784,1.291,20.364-2.638a53.381,53.381,0,0,0,11.387-7.5.459.459,0,0,0,.126-.479q-.229-.709-.691-2.574" transform="translate(0 -15.674)" fill="#768cb1"/>
        <path id="Trazado_38188" data-name="Trazado 38188" d="M105.659,32.691a14.794,14.794,0,0,0-9.572,1.817.458.458,0,0,0-.231.4q.009,1.486.182,3.159.121,1.173.234,1.883a.464.464,0,0,0,.051.149.458.458,0,0,0,.623.18q3.582-1.972,6.332-1.377c2.959.64,4.807,3.231,4.029,6.77s-5.1,4.7-7.578,3.615-4.276-4.056-4.8-10.652.648-15.043.466-21.01-.31-9.9-3.489-13.993S82.2-1.357,77.085,2.3c-2.23,1.594-4.064,3.155-4.064,3.477S77.789,4.7,81.2,7.1s4.369,7.5,4.879,14.614.695,17.809,3.272,24.6,6.569,10.446,12.467,11.268A12.52,12.52,0,0,0,115.3,47.708c1.82-8.223-4.326-14.3-9.639-15.017" transform="translate(-50.573 0)" fill="#768cb1"/>
        <path id="Trazado_38189" data-name="Trazado 38189" d="M271.339,60.628h-5.48v30.79h18.57V86.46h-13.09Z" transform="translate(-184.131 -41.99)" fill="#768cb1"/>
        <rect id="Rectángulo_1630" data-name="Rectángulo 1630" width="5.219" height="20.875" transform="translate(103.473 28.553)" fill="#768cb1"/>
        <path id="Trazado_38190" data-name="Trazado 38190" d="M337.494,59.637a3.212,3.212,0,0,0-2.37.935,3.047,3.047,0,0,0,0,4.392,3.21,3.21,0,0,0,2.37.935,3.451,3.451,0,0,0,2.414-.891,3.053,3.053,0,0,0,0-4.48,3.454,3.454,0,0,0-2.414-.891" transform="translate(-231.455 -41.304)" fill="#768cb1"/>
        <path id="Trazado_38191" data-name="Trazado 38191" d="M389.03,93.707a6.708,6.708,0,0,0-2.37-1.826,8.182,8.182,0,0,0-3.544-.7,6.692,6.692,0,0,0-4.132,1.152,7.317,7.317,0,0,0-2.261,2.718h-.087V91.707h-4.958v20.875H376.9V101.188a7.571,7.571,0,0,1,.261-2,4.674,4.674,0,0,1,.848-1.7,4.229,4.229,0,0,1,1.479-1.174,4.991,4.991,0,0,1,2.2-.435,3.306,3.306,0,0,1,2.131.631,3.749,3.749,0,0,1,1.152,1.566,6.974,6.974,0,0,1,.457,2q.087,1.067.087,1.935v10.568h5.219V99.4a12.02,12.02,0,0,0-.391-3.088,6.925,6.925,0,0,0-1.3-2.609" transform="translate(-257.419 -63.154)" fill="#768cb1"/>
        <path id="Trazado_38192" data-name="Trazado 38192" d="M471.427,65.841h-6.7l-8.046,8.654V53.838h-5.219V86.715h5.219V76.061h.087l8.307,10.655h6.915l-9.524-11.394Z" transform="translate(-312.679 -37.287)" fill="#768cb1"/>
        <path id="Trazado_38193" data-name="Trazado 38193" d="M540.3,96.839a8.4,8.4,0,0,0-.782-2.066,5.692,5.692,0,0,0-1.544-1.8,8.236,8.236,0,0,0-2.523-1.283,12.116,12.116,0,0,0-3.74-.5,14.97,14.97,0,0,0-4.805.783,10.116,10.116,0,0,0-4.067,2.566l2.74,2.74a7.82,7.82,0,0,1,2.479-1.587,8.074,8.074,0,0,1,3.088-.587,5.7,5.7,0,0,1,3.436.978,3.392,3.392,0,0,1,1.348,2.935v.565h-1.3q-1.3,0-2.784.065a24.887,24.887,0,0,0-2.935.3,16.247,16.247,0,0,0-2.8.717,8.27,8.27,0,0,0-2.37,1.283,5.937,5.937,0,0,0-1.631,2,6.3,6.3,0,0,0-.609,2.892,5.552,5.552,0,0,0,.652,2.74,6.019,6.019,0,0,0,1.718,1.957,7.589,7.589,0,0,0,2.435,1.174,10.162,10.162,0,0,0,2.805.391,9.008,9.008,0,0,0,3.827-.8,6.72,6.72,0,0,0,2.871-2.587h.13v2.87h4.7v-12q0-.739-.044-1.718a11.3,11.3,0,0,0-.282-2.022m-4.675,7.567a4.731,4.731,0,0,1-1.283,3.5,5.425,5.425,0,0,1-3.979,1.283,5.709,5.709,0,0,1-1.3-.152,3.542,3.542,0,0,1-1.174-.5,2.938,2.938,0,0,1-.848-.848,2.22,2.22,0,0,1-.327-1.24,2.09,2.09,0,0,1,.826-1.761,5.821,5.821,0,0,1,2.022-.957,12.794,12.794,0,0,1,2.544-.413q1.347-.087,2.435-.087h1.088Z" transform="translate(-361.177 -63.154)" fill="#768cb1"/>
        <rect id="Rectángulo_1631" data-name="Rectángulo 1631" width="5.219" height="32.878" transform="translate(184.71 16.55)" fill="#768cb1"/>
        <rect id="Rectángulo_1632" data-name="Rectángulo 1632" width="5.219" height="32.878" transform="translate(195.625 16.55)" fill="#768cb1"/>
      </g>
    </g>
  </g>
</svg>
