<svg id="Grupo_108" data-name="Grupo 108" xmlns="http://www.w3.org/2000/svg" xmlns:xlink="http://www.w3.org/1999/xlink" width="88.87" height="82.716" viewBox="0 0 88.87 82.716">
  <defs>
    <linearGradient id="linear-gradient" x1="1.206" x2="0" gradientUnits="objectBoundingBox">
      <stop offset="0" stop-color="#75e5e1"/>
      <stop offset="1" stop-color="#83b0ff"/>
    </linearGradient>
    <clipPath id="clip-path">
      <rect id="Rectángulo_52" data-name="Rectángulo 52" width="88.87" height="82.716" fill="url(#linear-gradient)"/>
    </clipPath>
  </defs>
  <g id="Grupo_107" data-name="Grupo 107" transform="translate(0 0)" clip-path="url(#clip-path)">
    <path id="Trazado_20" data-name="Trazado 20" d="M43.748,7.2A36.291,36.291,0,0,1,69.579,17.9a1.141,1.141,0,0,0,1.614-1.614A38.812,38.812,0,1,0,16.3,71.173a1.141,1.141,0,0,0,1.614-1.614A36.53,36.53,0,0,1,43.748,7.2" transform="translate(0.697 0.695)" fill="url(#linear-gradient)"/>
    <path id="Trazado_21" data-name="Trazado 21" d="M75.873,13A44.445,44.445,0,1,0,21.6,82.553a1.139,1.139,0,0,0,1.565-.391l12.583-21a1.142,1.142,0,0,0-.394-1.565,17.827,17.827,0,0,1-3.43-2.653,17.7,17.7,0,1,1,25.035,0,17.78,17.78,0,0,1-3.431,2.653,1.141,1.141,0,0,0,1.174,1.957,20.068,20.068,0,0,0,3.87-3,20.08,20.08,0,1,0-25.356,2.384L21.805,80a42.147,42.147,0,1,1,44.308.6,1.141,1.141,0,1,0,1.174,1.957A44.458,44.458,0,0,0,75.873,13" transform="translate(0 0)" fill="url(#linear-gradient)"/>
  </g>
</svg>
