<svg xmlns="http://www.w3.org/2000/svg" xmlns:xlink="http://www.w3.org/1999/xlink" width="129.775" height="77.865" viewBox="0 0 129.775 77.865">
  <defs>
    <linearGradient id="linear-gradient" y1="0.5" x2="1" y2="0.5" gradientUnits="objectBoundingBox">
      <stop offset="0" stop-color="#75e5e1"/>
      <stop offset="1" stop-color="#5e85c9"/>
    </linearGradient>
    <clipPath id="clip-path">
      <path id="Trazado_38262" data-name="Trazado 38262" d="M128.775,0c-14.37,0-19.46,26.3-23.551,47.431-.5,2.6-.953,5.165-1.387,7.645-1.957,11.156-3.646,20.789-8.026,20.789-4.575,0-8.221-15-11.151-27.053-.59-2.426-1.178-4.846-1.775-7.179C77.773,21.615,73.734,5.8,66.661,5.8c-6.3,0-9.409,13.316-13.02,28.76-.562,2.4-1.054,5.037-1.531,7.585-1.259,6.742-2.827,15.133-5.529,15.133-3.288,0-4.305-3.282-6.12-10.111-.188-.707-.383-1.441-.59-2.2l-.1-.352c-2.351-8.651-4.782-17.6-10.5-17.6S22.044,32.828,19.01,44.4l-.359,1.372c-1.8,6.881-2.8,10.673-4.645,11.627a2.264,2.264,0,0,1-1.968.206c-1.292-.533-2.494-2.5-3.575-5.839-.214-.663-.4-1.333-.579-1.989C6.962,46.427,5.918,42.636,1,42.636a1,1,0,0,0,0,2c3.236,0,3.958,2.049,4.955,5.667.188.684.382,1.382.605,2.074,1.306,4.037,2.8,6.285,4.715,7.071a4.191,4.191,0,0,0,3.649-.277c2.638-1.363,3.648-5.218,5.661-12.9l.359-1.37C23.805,34,25.11,29.022,29.278,29.022c4.186,0,6.616,8.938,8.568,16.119l.1.354c.206.756.4,1.487.587,2.189,1.788,6.733,3.082,11.6,8.053,11.6,4.364,0,5.814-7.77,7.5-16.765.472-2.526.959-5.138,1.517-7.522C58.574,22.25,61.952,7.8,66.661,7.8c5.52,0,9.977,17.449,14.287,34.324.6,2.326,1.181,4.737,1.769,7.156,3.572,14.7,6.946,28.581,13.094,28.581,6.059,0,7.8-9.9,10-22.444.434-2.472.882-5.028,1.38-7.609C111.138,27.4,116.055,2,128.775,2a1,1,0,1,0,0-2Z" fill="url(#linear-gradient)"/>
    </clipPath>
  </defs>
  <g id="Grupo_4801" data-name="Grupo 4801" transform="translate(-998.615 -1554.636)">
    <g id="Componente_39_1" data-name="Componente 39 – 1" transform="translate(998.615 1554.636)">
      <g id="Grupo_3596" data-name="Grupo 3596" clip-path="url(#clip-path)">
        <rect id="Rectángulo_1738" data-name="Rectángulo 1738" width="129.775" height="77.865" transform="translate(0 0)" fill="url(#linear-gradient)"/>
      </g>
    </g>
  </g>
</svg>
