<svg xmlns="http://www.w3.org/2000/svg" xmlns:xlink="http://www.w3.org/1999/xlink" width="91.344" height="91.344" viewBox="0 0 91.344 91.344">
  <defs>
    <linearGradient id="linear-gradient" y1="1.09" x2="1" y2="1.119" gradientUnits="objectBoundingBox">
      <stop offset="0" stop-color="#75e5e1"/>
      <stop offset="1" stop-color="#5e85c9"/>
    </linearGradient>
    <clipPath id="clip-path">
      <rect id="Rectángulo_1622" data-name="Rectángulo 1622" width="91.344" height="91.344" fill="url(#linear-gradient)"/>
    </clipPath>
  </defs>
  <g id="Grupo_4821" data-name="Grupo 4821" transform="translate(0 0)">
    <g id="Grupo_3391" data-name="Grupo 3391" transform="translate(0 0)" clip-path="url(#clip-path)">
      <path id="Trazado_38178" data-name="Trazado 38178" d="M45.671,0A45.672,45.672,0,1,0,91.344,45.671,45.723,45.723,0,0,0,45.671,0m0,88.984A43.312,43.312,0,1,1,88.984,45.671,43.361,43.361,0,0,1,45.671,88.984" transform="translate(0 0)" fill="url(#linear-gradient)"/>
      <path id="Trazado_38179" data-name="Trazado 38179" d="M52.341,46.068a10.968,10.968,0,0,0-2.6-2.223,15.828,15.828,0,0,0-2.819-1.378l-4.386-1.5V23.293a9.227,9.227,0,0,1,4.48,1.221,10.066,10.066,0,0,1,3.666,3.478l3.446-2.507a15.4,15.4,0,0,0-2.6-2.789,11.872,11.872,0,0,0-2.819-1.723,12.019,12.019,0,0,0-3.039-.845,22.551,22.551,0,0,0-3.132-.22v-4.2H39.528v4.2a12.768,12.768,0,0,0-4.135,1.127,14.114,14.114,0,0,0-3.76,2.507,12.189,12.189,0,0,0-2.725,3.728,10.965,10.965,0,0,0-1.034,4.793,14.829,14.829,0,0,0,.25,2.507,10.1,10.1,0,0,0,1.034,2.945A11.467,11.467,0,0,0,31.351,40.4a9.978,9.978,0,0,0,3.728,2.193l4.449,1.629V62.39a10.425,10.425,0,0,1-5.076-1.6,11.446,11.446,0,0,1-3.884-4.042L27,59.2a14.552,14.552,0,0,0,2.568,2.85,15.953,15.953,0,0,0,3.1,2.068,14.924,14.924,0,0,0,3.415,1.253,15.2,15.2,0,0,0,3.446.407v4.2h3.007v-4.2a14.371,14.371,0,0,0,4.637-1.034,13.175,13.175,0,0,0,3.978-2.475,11.947,11.947,0,0,0,2.757-3.728,11.11,11.11,0,0,0,1.034-4.855,12.228,12.228,0,0,0-.721-4.387,10.89,10.89,0,0,0-1.879-3.227M39.528,39.96l-1.066-.376a13.054,13.054,0,0,1-4.7-2.757,6.649,6.649,0,0,1-1.754-5.012,8.16,8.16,0,0,1,.627-3.227,8.569,8.569,0,0,1,4.041-4.355,9.757,9.757,0,0,1,2.851-.939ZM50.179,56.908A8.524,8.524,0,0,1,48.424,59.7a8.865,8.865,0,0,1-2.631,1.912,8.128,8.128,0,0,1-3.258.782V45.348l2.694,1a11.234,11.234,0,0,1,2.788,1.441,6.427,6.427,0,0,1,2.539,3.7,8.079,8.079,0,0,1,.25,1.941,9.445,9.445,0,0,1-.627,3.478" transform="translate(4.864 2.83)" fill="url(#linear-gradient)"/>
    </g>
  </g>
</svg>
