<svg xmlns="http://www.w3.org/2000/svg" xmlns:xlink="http://www.w3.org/1999/xlink" width="77.278" height="77.278" viewBox="0 0 77.278 77.278">
  <defs>
    <linearGradient id="linear-gradient" y1="0.321" x2="0.968" y2="0.321" gradientUnits="objectBoundingBox">
      <stop offset="0" stop-color="#75e5e1"/>
      <stop offset="1" stop-color="#5e85c9"/>
    </linearGradient>
    <clipPath id="clip-path">
      <rect id="Rectángulo_1641" data-name="Rectángulo 1641" width="77.278" height="77.278" transform="translate(0 0)" fill="url(#linear-gradient)"/>
    </clipPath>
  </defs>
  <g id="Grupo_4802" data-name="Grupo 4802" transform="translate(-681.361 -1555)">
    <g id="Componente_38_1" data-name="Componente 38 – 1" transform="translate(681.361 1555)">
      <g id="Grupo_3446" data-name="Grupo 3446" transform="translate(0 0)" clip-path="url(#clip-path)">
        <path id="Trazado_38201" data-name="Trazado 38201" d="M77.279,38.639A38.639,38.639,0,1,0,38.636,77.278h0A38.684,38.684,0,0,0,77.279,38.639m-2.026-1H69.948C69.438,17.5,53.793,6.926,44.917,2.549a36.69,36.69,0,0,1,30.336,35.09M37.639,3.014V37.639H24.326c.286-21.4,9.589-31.459,13.313-34.625m0,36.625V74.264C33.915,71.1,24.612,61.044,24.326,39.639Zm2,34.625V39.639H52.953C52.667,61.046,43.361,71.1,39.639,74.264m0-36.625V3.014c3.724,3.166,13.028,13.22,13.314,34.625Zm-17.314,0h-13C9.848,18.379,25.056,8.322,33.469,4.228,28.884,9.289,22.554,19.546,22.325,37.639m0,2c.229,18.093,6.559,28.35,11.145,33.411C25.056,68.956,9.848,58.9,9.33,39.639Zm32.628,0H67.948C67.43,58.9,52.222,68.956,43.809,73.05c4.585-5.062,10.915-15.319,11.144-33.411m0-2C54.724,19.546,48.394,9.29,43.809,4.228,52.223,8.322,67.43,18.379,67.948,37.639ZM32.36,2.549C23.485,6.926,7.84,17.5,7.33,37.639h-5.3A36.688,36.688,0,0,1,32.36,2.549M2.026,39.639h5.3c.51,20.143,16.155,30.713,25.031,35.09A36.687,36.687,0,0,1,2.026,39.639m42.891,35.09c8.875-4.377,24.521-14.946,25.031-35.09h5.305a36.689,36.689,0,0,1-30.336,35.09" fill="url(#linear-gradient)"/>
      </g>
    </g>
  </g>
</svg>
