<svg xmlns="http://www.w3.org/2000/svg" xmlns:xlink="http://www.w3.org/1999/xlink" width="123.078" height="77.153" viewBox="0 0 123.078 77.153">
  <defs>
    <linearGradient id="linear-gradient" y1="0.5" x2="1" y2="0.5" gradientUnits="objectBoundingBox">
      <stop offset="0" stop-color="#75e5e1"/>
      <stop offset="1" stop-color="#5e85c9"/>
    </linearGradient>
    <clipPath id="clip-path">
      <rect id="Rectángulo_2093" data-name="Rectángulo 2093" width="123.078" height="77.153" transform="translate(0 0)" fill="url(#linear-gradient)"/>
    </clipPath>
  </defs>
  <g id="Grupo_4822" data-name="Grupo 4822" transform="translate(0 0)">
    <g id="Grupo_4190" data-name="Grupo 4190" clip-path="url(#clip-path)">
      <path id="Trazado_38616" data-name="Trazado 38616" d="M122.641.175a.993.993,0,0,0-.928-.1c-.176.069-17.716,6.89-29.9,6.89S62.08.139,61.9.07l-.007,0A1.071,1.071,0,0,0,61.749.03c-.03-.006-.059-.018-.089-.021a.975.975,0,0,0-.121,0,.961.961,0,0,0-.12,0c-.032,0-.062.015-.094.022a1.036,1.036,0,0,0-.143.037l-.008,0C61,.139,43.458,6.96,31.269,6.96S1.541.139,1.365.07A1,1,0,0,0,0,1V69.194a1,1,0,0,0,.622.926c.7.287,17.375,7.033,29.952,7.033,11.743,0,28.227-5.884,30.952-6.887,2.592,1.029,17.865,6.887,29.587,6.887,12.564,0,30.558-6.736,31.319-7.023a1,1,0,0,0,.646-.936V1a1,1,0,0,0-.437-.826M60.539,68.5c-3.362,1.213-19.071,6.658-29.965,6.658-10.853,0-25.41-5.411-28.574-6.639V2.447C6.432,4.08,20.574,8.96,31.269,8.96s24.838-4.88,29.27-6.513Zm60.539,0c-3.362,1.213-19.071,6.658-29.965,6.658-10.853,0-25.41-5.411-28.574-6.639V2.447C66.971,4.08,81.113,8.96,91.808,8.96s24.838-4.88,29.27-6.513Z" fill="url(#linear-gradient)"/>
      <path id="Trazado_38617" data-name="Trazado 38617" d="M12.36,35.322a1,1,0,0,0-1.15,1.637c.252.177,6.328,4.357,19.712,4.357,13.357,0,20.085-4.152,20.366-4.329A1,1,0,1,0,50.219,35.3c-.063.04-6.513,4.02-19.3,4.02-12.679,0-18.5-3.954-18.562-3.994" fill="url(#linear-gradient)"/>
      <path id="Trazado_38618" data-name="Trazado 38618" d="M30.922,53.146c13.357,0,20.086-4.153,20.366-4.33a1,1,0,0,0-1.066-1.692c-.065.04-6.577,4.022-19.3,4.022-12.679,0-18.5-3.955-18.562-3.994a1,1,0,0,0-1.151,1.636c.253.177,6.329,4.358,19.713,4.358" fill="url(#linear-gradient)"/>
      <path id="Trazado_38619" data-name="Trazado 38619" d="M50.22,58.955c-.063.04-6.514,4.021-19.3,4.021-12.632,0-18.462-3.925-18.56-3.994a1,1,0,0,0-1.152,1.636c.252.178,6.328,4.358,19.712,4.358,13.358,0,20.086-4.153,20.366-4.33a1,1,0,1,0-1.068-1.691" fill="url(#linear-gradient)"/>
    </g>
  </g>
</svg>
