<svg id="Grupo_106" data-name="Grupo 106" xmlns="http://www.w3.org/2000/svg" xmlns:xlink="http://www.w3.org/1999/xlink" width="88.89" height="88.847" viewBox="0 0 88.89 88.847">
  <defs>
    <linearGradient id="linear-gradient" x1="1" x2="0" gradientUnits="objectBoundingBox">
      <stop offset="0" stop-color="#75e5e1"/>
      <stop offset="1" stop-color="#83b0ff"/>
    </linearGradient>
    <clipPath id="clip-path">
      <rect id="Rectángulo_51" data-name="Rectángulo 51" width="88.89" height="88.847" fill="url(#linear-gradient)"/>
    </clipPath>
  </defs>
  <g id="Grupo_105" data-name="Grupo 105" transform="translate(0 0)" clip-path="url(#clip-path)">
    <path id="Trazado_19" data-name="Trazado 19" d="M75.873,13A44.443,44.443,0,1,0,88.89,44.423,44.5,44.5,0,0,0,75.873,13M14.631,14.611a42.189,42.189,0,0,1,58.8-.786L67.5,19.757H17.551a3.311,3.311,0,0,0-3.309,3.307v8.508a3.312,3.312,0,0,0,3.309,3.309H52.375l-1.981,1.98H17.551a3.311,3.311,0,0,0-3.309,3.307v8.508a3.312,3.312,0,0,0,3.309,3.309H35.269l-1.98,1.98H17.76a3.312,3.312,0,0,0-3.309,3.309v8.508A3.311,3.311,0,0,0,17.76,69.09h.4l-4.319,4.32a42.139,42.139,0,0,1,.786-58.8M54.657,32.6H17.551a1.027,1.027,0,0,1-1.026-1.026V23.064a1.027,1.027,0,0,1,1.026-1.025H65.217ZM68.444,22.039h2.688a1.027,1.027,0,0,1,1.026,1.025v8.508A1.028,1.028,0,0,1,71.132,32.6H57.885ZM37.552,49.7h-20a1.027,1.027,0,0,1-1.026-1.026V40.169a1.027,1.027,0,0,1,1.026-1.025h30.56ZM51.339,39.144H71.132a1.027,1.027,0,0,1,1.026,1.025v8.508A1.027,1.027,0,0,1,71.132,49.7H40.779ZM20.446,66.808H17.76a1.027,1.027,0,0,1-1.026-1.025V57.274a1.027,1.027,0,0,1,1.026-1.026H31.006ZM34.234,56.248H71.341a1.027,1.027,0,0,1,1.025,1.026v8.508a1.026,1.026,0,0,1-1.025,1.025H23.674ZM74.259,74.236a42.2,42.2,0,0,1-58.8.786l5.932-5.932h49.95a3.311,3.311,0,0,0,3.307-3.307V57.274a3.311,3.311,0,0,0-3.307-3.309H36.517l1.98-1.98H71.132a3.312,3.312,0,0,0,3.309-3.309V40.169a3.312,3.312,0,0,0-3.309-3.307H53.621l1.981-1.98H71.132a3.312,3.312,0,0,0,3.309-3.309V23.064a3.311,3.311,0,0,0-3.309-3.307h-.405l4.32-4.32a42.14,42.14,0,0,1-.787,58.8" transform="translate(0 0)" fill="url(#linear-gradient)"/>
  </g>
</svg>
