<svg id="Grupo_3610" data-name="Grupo 3610" xmlns="http://www.w3.org/2000/svg" xmlns:xlink="http://www.w3.org/1999/xlink" width="87.884" height="88.886" viewBox="0 0 87.884 88.886">
  <defs>
    <linearGradient id="linear-gradient" x1="0.065" y1="0.5" x2="1" y2="0.5" gradientUnits="objectBoundingBox">
      <stop offset="0" stop-color="#75e5e1"/>
      <stop offset="1" stop-color="#83b0ff"/>
    </linearGradient>
    <clipPath id="clip-path">
      <rect id="Rectángulo_1745" data-name="Rectángulo 1745" width="87.884" height="88.886" fill="url(#linear-gradient)"/>
    </clipPath>
  </defs>
  <g id="Grupo_3609" data-name="Grupo 3609" transform="translate(0 0)" clip-path="url(#clip-path)">
    <path id="Trazado_38272" data-name="Trazado 38272" d="M87.884,37.632c0-.015-.006-.027-.007-.041a1.135,1.135,0,0,0-.042-.264,1.048,1.048,0,0,0-.039-.1,1.108,1.108,0,0,0-.088-.181c-.021-.033-.043-.064-.067-.1a1.147,1.147,0,0,0-.129-.14c-.031-.027-.06-.055-.095-.08-.017-.013-.03-.03-.047-.041a1.285,1.285,0,0,0-.12-.058c-.027-.014-.049-.034-.078-.046L76.556,32.268a1.156,1.156,0,0,0-.861,0L65.081,36.585c-.027.01-.048.031-.074.043a1.23,1.23,0,0,0-.123.06c-.017.011-.03.029-.047.041-.034.025-.064.053-.095.08a1.246,1.246,0,0,0-.129.14c-.024.032-.047.063-.067.1a1.215,1.215,0,0,0-.089.181,1.042,1.042,0,0,0-.038.1,1.078,1.078,0,0,0-.042.264c0,.014-.007.026-.007.041V42.8H55.64A11.773,11.773,0,0,0,45.083,32.244V24.126l9.925-4.268a1.144,1.144,0,0,0,.69-1.049V5.446c0-.014-.007-.026-.007-.04a1.135,1.135,0,0,0-.042-.264,1.052,1.052,0,0,0-.039-.1,1.208,1.208,0,0,0-.088-.181c-.021-.033-.043-.064-.067-.1a1.245,1.245,0,0,0-.129-.14,1.062,1.062,0,0,0-.095-.08c-.017-.013-.03-.03-.048-.041a.952.952,0,0,0-.119-.058c-.027-.014-.05-.034-.078-.047L44.372.083a1.145,1.145,0,0,0-.861,0L32.9,4.4c-.026.011-.047.031-.073.043A1.144,1.144,0,0,0,32.7,4.5c-.017.011-.031.029-.047.041a1.062,1.062,0,0,0-.095.08,1.146,1.146,0,0,0-.129.14c-.024.032-.047.063-.067.1a1.114,1.114,0,0,0-.089.181,1.043,1.043,0,0,0-.038.1,1.078,1.078,0,0,0-.042.264c0,.014-.007.026-.007.04V18.808a1.142,1.142,0,0,0,.69,1.049L42.8,24.126v8.118A11.772,11.772,0,0,0,32.243,42.8h-8.73V37.632c0-.015-.006-.027-.006-.041a1.2,1.2,0,0,0-.042-.264c-.01-.034-.026-.066-.039-.1a1.208,1.208,0,0,0-.088-.181c-.021-.033-.045-.064-.068-.1a1.235,1.235,0,0,0-.128-.14c-.031-.027-.062-.055-.095-.08-.017-.013-.03-.03-.048-.041a1.159,1.159,0,0,0-.12-.058c-.027-.014-.049-.034-.078-.046L12.187,32.268a1.156,1.156,0,0,0-.861,0L.711,36.585a.787.787,0,0,0-.074.043,1.231,1.231,0,0,0-.123.06.548.548,0,0,0-.047.041,1.094,1.094,0,0,0-.095.08,1.147,1.147,0,0,0-.129.14c-.024.032-.048.063-.068.1a1.208,1.208,0,0,0-.088.181c-.013.033-.029.065-.039.1a1.2,1.2,0,0,0-.042.264c0,.014-.006.026-.006.041V50.994a1.145,1.145,0,0,0,.689,1.049L11.3,56.608c.017.007.035,0,.052.01a1.009,1.009,0,0,0,.8,0c.017-.007.035,0,.052-.01l10.616-4.565a1.145,1.145,0,0,0,.689-1.049V45.083h8.73A11.773,11.773,0,0,0,42.8,55.641v9.1L32.9,68.771a.769.769,0,0,0-.073.043,1.05,1.05,0,0,0-.124.062c-.017.011-.031.027-.047.04a1.074,1.074,0,0,0-.095.081,1,1,0,0,0-.129.14.96.96,0,0,0-.067.1,1.059,1.059,0,0,0-.089.18c-.013.034-.029.065-.038.1a1.078,1.078,0,0,0-.042.264c0,.014-.007.026-.007.041V83.179a1.144,1.144,0,0,0,.69,1.049L43.49,88.793c.017.007.037,0,.052.01a1.009,1.009,0,0,0,.8,0c.017-.006.035,0,.052-.01l10.615-4.565a1.146,1.146,0,0,0,.69-1.049V69.817c0-.015-.007-.027-.007-.041a1.135,1.135,0,0,0-.042-.264c-.01-.034-.025-.065-.039-.1a1.146,1.146,0,0,0-.088-.18.959.959,0,0,0-.067-.1,1.314,1.314,0,0,0-.224-.221c-.017-.013-.03-.029-.048-.04a.933.933,0,0,0-.122-.06.8.8,0,0,0-.074-.045l-9.9-4.028v-9.1A11.774,11.774,0,0,0,55.64,45.083h8.73v5.911a1.144,1.144,0,0,0,.69,1.049l10.614,4.565c.017.007.037,0,.054.01a1.006,1.006,0,0,0,.8,0c.017-.007.037,0,.054-.01l10.615-4.565a1.146,1.146,0,0,0,.69-1.049V37.632M11.756,34.557l7.658,3.115L16,39.138l-4.247,1.826L4.1,37.672ZM2.283,39.376l8.333,3.584V53.825L2.283,50.242ZM21.23,50.242,12.9,53.825V42.959l8.333-3.584Zm23.853-28.6V10.775l8.333-3.584V18.058ZM43.942,2.373,51.6,5.486,43.942,8.78,39.7,6.954,36.284,5.487ZM34.467,7.191,42.8,10.775V21.641l-8.334-3.584Zm9.475,59.551L51.6,69.857,43.942,73.15,39.7,71.324l-3.411-1.467Zm-9.475,4.82L42.8,75.145V86.011l-8.334-3.582ZM45.083,86.011V75.145l8.333-3.583V82.428ZM43.942,53.417a9.474,9.474,0,1,1,9.474-9.475,9.487,9.487,0,0,1-9.474,9.475m32.184-18.86,7.658,3.115-3.411,1.467-4.247,1.826-7.658-3.293Zm-9.474,4.819,8.333,3.584V53.825l-8.333-3.584Zm10.615,14.45V42.959L85.6,39.376V50.242Z" transform="translate(0 0)" fill="url(#linear-gradient)"/>
  </g>
</svg>
